<svg width="78" height="78" viewBox="0 0 78 78" fill="none" xmlns="http://www.w3.org/2000/svg">
<path fill-rule="evenodd" clip-rule="evenodd" d="M31.9091 9.96273C41.955 11.0709 49.9291 19.045 51.0373 29.0909H56V31.5707C54.3937 31.1974 52.7199 31 51 31C50.9578 31 50.9156 31.0001 50.8734 31.0004C50.2408 31.0039 49.6146 31.0342 48.9958 31.0901C48.7775 20.5099 40.1325 12.0002 29.5 12.0002C18.7304 12.0002 10 20.7307 10 31.5002C10 42.1328 18.5098 50.7778 29.09 50.996C29.0305 51.656 29 52.3245 29 53C29 54.7199 29.1974 56.3937 29.5707 58H27.0909V53.0373C17.045 51.9291 9.07091 43.955 7.96273 33.9091H3V29.0909H7.96273C9.07091 19.045 17.045 11.0709 27.0909 9.96273V5H31.9091V9.96273ZM38.4476 34.93C34.0208 38.0109 30.7797 42.6769 29.5464 48.1058C29.5346 48.1058 29.5227 48.1058 29.5109 48.1058C28.9378 48.1058 28.3858 48.0846 27.8339 48.0209V39.3811C27.8339 36.3668 34.0749 34.8596 37.1742 34.8596C37.5574 34.8596 37.9876 34.8831 38.4476 34.93ZM37.1742 23.354C39.4456 23.354 41.2712 25.1796 41.2712 27.451C41.2712 29.7224 39.4456 31.548 37.1742 31.548C34.9028 31.548 33.0772 29.7224 33.0772 27.451C33.056 25.1796 34.9028 23.354 37.1742 23.354ZM24.4374 20C27.1971 20 29.4472 22.2502 29.4472 25.0098C29.4472 27.7694 27.1971 30.0196 24.4374 30.0196C21.6778 30.0196 19.4276 27.7694 19.4276 25.0098C19.4276 22.2289 21.6566 20 24.4374 20ZM24.4374 39.3811V47.3416C19.3427 45.7495 15.3094 41.8223 13.5263 36.8125C15.7552 34.435 21.3169 33.225 24.4374 33.225C25.5625 33.225 26.9848 33.3948 28.4707 33.692C24.9894 35.5389 24.4374 37.9801 24.4374 39.3811Z" fill="#1EC6C0"/>
<path fill-rule="evenodd" clip-rule="evenodd" d="M53 73C64.0457 73 73 64.0457 73 53C73 41.9543 64.0457 33 53 33C41.9543 33 33 41.9543 33 53C33 64.0457 41.9543 73 53 73ZM60 60.125V40C57.9821 44.8495 56.2361 46.125 53.125 46.125H50V54H53.125C56.4549 54.473 60 60.125 60 60.125ZM61 40H63V60.125H61V40ZM49 46H44V54C44 61.6123 45.7031 65.4033 46.4249 67.0101L46.4705 67.1118C47.3363 69.0436 50.7661 67.3449 50.8993 66.5123C50.9829 65.9896 50.6291 65.1768 50.2716 64.3557C50.0596 63.8686 49.8462 63.3785 49.7222 62.9444C49.7006 62.8689 49.6785 62.7944 49.6561 62.7187L49.6559 62.7182C49.3586 61.7159 49 60.5075 49 54V46ZM43 54V46C43 46 40 47.5153 40 50C40 52.4847 43 54 43 54ZM64 47C64 47 67 47.8554 67 50.5C67 53.1446 64 54 64 54V47Z" fill="#0B5AB5"/>
</svg>
